<?xml version="1.0" standalone="no"?><!DOCTYPE svg PUBLIC "-//W3C//DTD SVG 1.1//EN" "http://www.w3.org/Graphics/SVG/1.1/DTD/svg11.dtd"><svg t="1738654050082" class="icon" viewBox="0 0 1024 1024" version="1.1" xmlns="http://www.w3.org/2000/svg" p-id="4757" xmlns:xlink="http://www.w3.org/1999/xlink" width="200" height="200"><path d="M512.062737 1024h-0.125474A511.937263 511.937263 0 0 1 0 512.062737v-0.125474A511.937263 511.937263 0 0 1 511.937263-0.009652h0.125474a511.946914 511.946914 0 0 1 511.946915 511.946915v0.125474a511.937263 511.937263 0 0 1-511.946915 511.937263zM370.121761 533.374153h-37.169502V307.046535h-75.970177v410.099969a34.640702 34.640702 0 0 0 35.354943 33.887853h77.784736V533.374153z m130.233211 0h-34.631051V307.046535h-54.050691v226.327618h-19.400337v217.602292h108.053123V533.374153z m132.781314 0h-19.400337V307.046535h-54.050692v226.327618h-34.63105v217.602292h108.101383V533.374153z m135.310115-226.327618h-75.970177v211.116209h-0.415032v15.211409h-36.744819v217.660204h77.775084a34.640702 34.640702 0 0 0 35.354944-33.887853V307.046535z" fill="#F2B958" p-id="4758"></path></svg>